<svg xmlns="http://www.w3.org/2000/svg" viewBox="0 0 59.000000 46.000000">
    <g transform="translate(0.000000,46.000000) scale(0.100000,-0.100000)">
        <path d="M24 436 c-3 -7 -4 -33 -2 -57 l3 -44 63 -3 c38 -2 69 2 78 9 17 14 19 80 2 97 -17 17 -137 16 -144 -2z"/>
        <path d="M224 436 c-3 -7 -4 -33 -2 -57 l3 -44 164 -3 c112 -2 168 1 177 9 17 14 18 81 2 97 -19 19 -337 17 -344 -2z"/>
        <path d="M24 276 c-3 -7 -4 -33 -2 -57 l3 -44 63 -3 c38 -2 69 2 78 9 17 14 19 80 2 97 -17 17 -137 16 -144 -2z"/>
        <path d="M224 276 c-3 -7 -4 -33 -2 -57 l3 -44 164 -3 c112 -2 168 1 177 9 17 14 18 81 2 97 -19 19 -337 17 -344 -2z"/>
        <path d="M24 116 c-3 -7 -4 -33 -2 -57 l3 -44 63 -3 c38 -2 69 2 78 9 17 14 19 80 2 97 -17 17 -137 16 -144 -2z"/>
        <path d="M224 116 c-3 -7 -4 -33 -2 -57 l3 -44 164 -3 c112 -2 168 1 177 9 17 14 18 81 2 97 -19 19 -337 17 -344 -2z"/>
    </g>
</svg>
