<svg xmlns="http://www.w3.org/2000/svg" viewBox="0 0 54.000000 46.000000">
    <g transform="translate(0.000000,46.000000) scale(0.100000,-0.100000)">
        <path d="M22 438 c-16 -16 -16 -160 0 -176 16 -16 200 -16 216 0 16 16 16 160 0 176 -16 16 -200 16 -216 0z"/>
        <path d="M302 438 c-16 -16 -16 -160 0 -176 16 -16 200 -16 216 0 16 16 16 160 0 176 -16 16 -200 16 -216 0z"/>
        <path d="M22 198 c-16 -16 -16 -160 0 -176 16 -16 200 -16 216 0 16 16 16 160 0 176 -16 16 -200 16 -216 0z"/>
        <path d="M302 198 c-16 -16 -16 -160 0 -176 16 -16 200 -16 216 0 16 16 16 160 0 176 -16 16 -200 16 -216 0z"/>
    </g>
</svg>
